<svg width="24" height="24" viewBox="0 0 24 24" fill="none" xmlns="http://www.w3.org/2000/svg">
<path fill-rule="evenodd" clip-rule="evenodd" d="M17.7435 8.67155C17.5716 8.50615 17.341 8.41577 17.1025 8.42027C16.864 8.42478 16.637 8.52379 16.4715 8.69555L12.0195 13.4211L7.56749 8.69555C7.48656 8.60634 7.38855 8.53427 7.27927 8.48363C7.16998 8.43299 7.05164 8.4048 6.93126 8.40073C6.81089 8.39667 6.69091 8.4168 6.57846 8.45995C6.46601 8.5031 6.36336 8.56838 6.2766 8.65193C6.18983 8.73548 6.12073 8.83559 6.07337 8.94634C6.02601 9.05709 6.00136 9.17621 6.00088 9.29666C6.0004 9.41711 6.02411 9.53642 6.07059 9.64754C6.11707 9.75866 6.18539 9.85932 6.27149 9.94355L11.3715 15.3435C11.4554 15.4307 11.5561 15.4999 11.6674 15.5473C11.7788 15.5946 11.8985 15.619 12.0195 15.619C12.1405 15.619 12.2602 15.5946 12.3715 15.5473C12.4829 15.4999 12.5835 15.4307 12.6675 15.3435L17.7675 9.94355C17.9329 9.77164 18.0233 9.5411 18.0188 9.30258C18.0143 9.06407 17.9152 8.8371 17.7435 8.67155Z" fill="#171717"/>
</svg>
