<svg width="20" height="20" viewBox="0 0 20 20" fill="none" xmlns="http://www.w3.org/2000/svg">
<path d="M16.5 6.5V13.5C16.5 13.8978 16.342 14.2794 16.0607 14.5607C15.7794 14.842 15.3978 15 15 15H5C4.60218 15 4.22064 14.842 3.93934 14.5607C3.65804 14.2794 3.5 13.8978 3.5 13.5V6.5M16.5 6.5C16.5 6.10218 16.342 5.72064 16.0607 5.43934C15.7794 5.15804 15.3978 5 15 5H5C4.60218 5 4.22064 5.15804 3.93934 5.43934C3.65804 5.72064 3.5 6.10218 3.5 6.5M16.5 6.5V6.662C16.5 6.9181 16.4345 7.16994 16.3096 7.39353C16.1848 7.61712 16.0047 7.80502 15.7867 7.93933L10.7867 11.016C10.5501 11.1617 10.2778 11.2388 10 11.2388C9.7222 11.2388 9.44986 11.1617 9.21333 11.016L4.21333 7.94C3.99528 7.80569 3.81525 7.61779 3.69038 7.3942C3.56551 7.1706 3.49997 6.91876 3.5 6.66267V6.5" stroke="#737373" stroke-linecap="round" stroke-linejoin="round"/>
</svg>
