<svg width="24" height="24" viewBox="0 0 24 24" fill="none" xmlns="http://www.w3.org/2000/svg">
<path d="M14.565 17.4876L14.372 17.9489L14.565 17.4876C14.5156 17.467 14.4708 17.4366 14.4334 17.3983L14.4265 17.3913L14.4193 17.3845L9.02151 12.2866C8.98349 12.2495 8.95321 12.2053 8.93245 12.1565C8.91141 12.107 8.90057 12.0538 8.90057 12C8.90057 11.9462 8.91141 11.893 8.93245 11.8435C8.95321 11.7947 8.98349 11.7504 9.02152 11.7134L14.4193 6.61549L14.4193 6.61551L14.4227 6.6123C14.4991 6.53879 14.6015 6.49862 14.7075 6.50062C14.8134 6.50262 14.9141 6.5465 14.9877 6.62264C15.0612 6.69905 15.1014 6.80151 15.0994 6.90752C15.0974 7.01277 15.054 7.11296 14.9787 7.18639L10.2555 11.6361L9.86924 12L10.2555 12.3639L14.9811 16.8159L14.9811 16.816L14.9881 16.8223C15.0277 16.8583 15.0597 16.9018 15.0823 16.9504C15.1048 16.999 15.1173 17.0516 15.1191 17.1051C15.1209 17.1586 15.112 17.2119 15.0928 17.2619C15.0736 17.3119 15.0446 17.3575 15.0075 17.3961C14.9703 17.4346 14.9258 17.4653 14.8766 17.4864C14.8274 17.5074 14.7744 17.5184 14.7209 17.5186C14.6674 17.5188 14.6143 17.5083 14.565 17.4876Z" fill="#171717" stroke="#171717"/>
</svg>
