<svg width="24" height="24" viewBox="0 0 24 24" fill="none" xmlns="http://www.w3.org/2000/svg">
<path d="M8.6719 6.27598L9.03221 6.62264C8.9587 6.69905 8.91854 6.80151 8.92054 6.90752C8.92252 7.01277 8.96591 7.11296 9.04125 7.18639L13.7644 11.6361L14.1507 12L13.7644 12.3639L9.03876 16.8159L9.03882 16.816L9.03183 16.8223C8.99218 16.8583 8.96015 16.9018 8.93764 16.9504C8.91514 16.999 8.90261 17.0516 8.9008 17.1051C8.89899 17.1586 8.90794 17.2119 8.92712 17.2619C8.9463 17.3119 8.97531 17.3575 9.01244 17.3961C9.04958 17.4346 9.09407 17.4653 9.14329 17.4864C9.19251 17.5074 9.24546 17.5184 9.29899 17.5186C9.35252 17.5188 9.40555 17.5083 9.45494 17.4876C9.50432 17.467 9.54906 17.4366 9.5865 17.3983L9.59341 17.3913L9.60059 17.3845L14.9984 12.2866C15.0364 12.2495 15.0667 12.2053 15.0875 12.1565C15.1085 12.107 15.1193 12.0538 15.1193 12C15.1193 11.9462 15.1085 11.893 15.0875 11.8435C15.0667 11.7947 15.0364 11.7504 14.9984 11.7134L9.60059 6.61549L9.60057 6.61551L9.59724 6.6123C9.52084 6.53879 9.41837 6.49862 9.31237 6.50062C9.20636 6.50262 9.10548 6.54663 9.03191 6.62297L8.6719 6.27598ZM8.6719 6.27598C8.5065 6.44789 8.41613 6.67844 8.42063 6.91695C8.42513 7.15547 8.52414 7.38244 8.6959 7.54798L9.9439 6.25198C9.77199 6.08659 9.54145 5.99621 9.30293 6.00071C9.06442 6.00521 8.83745 6.10422 8.6719 6.27598Z" fill="#171717" stroke="#171717"/>
</svg>
