<svg width="32" height="32" viewBox="0 0 32 32" fill="none" xmlns="http://www.w3.org/2000/svg">
<rect width="32" height="32" rx="8" fill="#F5F5F5"/>
<path d="M16 20.5V13.75M16 13.75L19 16.75M16 13.75L13 16.75M10.75 23.5C9.67944 23.5012 8.64353 23.1207 7.82831 22.4267C7.01309 21.7328 6.47196 20.771 6.30212 19.714C6.13227 18.657 6.34484 17.574 6.90163 16.6596C7.45842 15.7453 8.32297 15.0593 9.34001 14.725C9.07871 13.3862 9.34877 11.9982 10.093 10.8551C10.8372 9.71188 11.9972 8.90324 13.3272 8.6004C14.6573 8.29755 16.053 8.52428 17.2188 9.23256C18.3846 9.94084 19.2289 11.0751 19.573 12.395C20.105 12.222 20.6748 12.2012 21.218 12.3349C21.7612 12.4687 22.2562 12.7516 22.6471 13.1519C23.038 13.5521 23.3092 14.0537 23.43 14.5999C23.5509 15.1461 23.5166 15.7153 23.331 16.243C24.1497 16.5557 24.833 17.1451 25.2626 17.909C25.6921 18.6728 25.8407 19.563 25.6826 20.4249C25.5245 21.2869 25.0697 22.0663 24.3971 22.628C23.7244 23.1897 22.8763 23.4982 22 23.5H10.75Z" stroke="#171717" stroke-width="1.5" stroke-linecap="round" stroke-linejoin="round"/>
</svg>
