<svg xmlns="http://www.w3.org/2000/svg" width="210.086" height="216.07" viewBox="0 0 210.086 216.07"><defs><style>.a{opacity:0.08;}.b{fill:#fff;}</style></defs><g class="a"><path class="b" d="M203.918,42.955l-.329-.141a19.854,19.854,0,0,0-22.412,3.849L140.765,86.371a20.042,20.042,0,0,0-2.769-4.9,19.831,19.831,0,0,0-15.771-7.744H46.54a38.183,38.183,0,0,0-25.463,9.786L7.208,95.946a5.867,5.867,0,1,0,7.839,8.731L28.916,92.238a26.472,26.472,0,0,1,17.718-6.782h75.591a8.214,8.214,0,1,1,0,16.428H70.736a5.867,5.867,0,1,0,0,11.734h51.489a19.948,19.948,0,0,0,16.662-8.918l50.5-49.682a8.19,8.19,0,0,1,9.27-1.572l.329.141A7.932,7.932,0,0,1,201.336,66.4l-62.918,62.824a40.764,40.764,0,0,1-29.007,12.016H64.822A24.688,24.688,0,0,0,45.038,151.4L38,160.952a5.867,5.867,0,0,0,9.387,7.04l7.04-9.528A12.931,12.931,0,0,1,64.8,153.208h44.589a52.428,52.428,0,0,0,37.291-15.442l62.895-63.035a19.666,19.666,0,0,0-5.656-31.776Z" transform="translate(-5.26 45.731)"/><path class="b" d="M33.053,95.824a5.844,5.844,0,0,0,4.154-1.713l77.187-77.186a5.874,5.874,0,1,0-8.308-8.308L28.9,85.8a5.867,5.867,0,0,0,4.154,10.021Z" transform="translate(24.256 -0.099)"/><path class="b" d="M69.787,74.208H74.48a18.563,18.563,0,0,0,18.54-18.54v-9.2A18.563,18.563,0,0,0,74.433,28H69.74A18.563,18.563,0,0,0,51.2,46.54v9.2A18.563,18.563,0,0,0,69.787,74.208ZM62.981,46.469a6.829,6.829,0,0,1,6.806-6.806H74.48a6.829,6.829,0,0,1,6.806,6.806v9.2a6.829,6.829,0,0,1-6.806,6.806H69.787a6.829,6.829,0,0,1-6.806-6.806Z" transform="translate(56.612 28.323)"/><path class="b" d="M46.453,50.3a18.563,18.563,0,0,0,18.54-18.54V22.54A18.563,18.563,0,0,0,46.453,4H41.76A18.563,18.563,0,0,0,23.22,22.54v9.2a18.563,18.563,0,0,0,18.54,18.54ZM35,31.763V22.54a6.829,6.829,0,0,1,6.829-6.806h4.694a6.829,6.829,0,0,1,6.688,6.806v9.2a6.829,6.829,0,0,1-6.806,6.806H41.713A6.829,6.829,0,0,1,35,31.739Z" transform="translate(18.929 -4)"/></g></svg>