<svg xmlns="http://www.w3.org/2000/svg" width="113.002" height="119.856" viewBox="0 0 113.002 119.856"><defs><style>.a{fill:#fff;}</style></defs><g transform="translate(-2.917 -1.668)"><path class="a" d="M101.563,1.668h-84.3a14.367,14.367,0,0,0-14.35,14.35v41.9A14.368,14.368,0,0,0,17.267,72.27H70.614v39.6a.287.287,0,0,0,.011.047c.044,5.476,8.106,9.6,18.8,9.6,10.713,0,18.8-4.148,18.8-9.646V70.592a14.3,14.3,0,0,0,7.7-12.673v-41.9A14.372,14.372,0,0,0,101.563,1.668ZM7.034,20.24H111.8v7.686H7.034ZM17.267,5.785h84.3A10.246,10.246,0,0,1,111.8,16.018v.1H7.034v-.1A10.243,10.243,0,0,1,17.267,5.785ZM104.1,100.965c0,2.254-5.72,5.528-14.685,5.528s-14.685-3.272-14.685-5.528v-5.13c3.39,2.152,8.613,3.486,14.685,3.486s11.293-1.331,14.685-3.486ZM74.732,73.744c3.39,2.152,8.613,3.486,14.685,3.486S100.709,75.9,104.1,73.744v5.127c0,2.254-5.72,5.528-14.685,5.528s-14.685-3.272-14.685-5.528ZM104.1,89.675c0,2.251-5.72,5.525-14.685,5.525s-14.685-3.272-14.685-5.525V85.031c3.39,2.152,8.613,3.486,14.685,3.486s11.293-1.331,14.685-3.486ZM89.417,73.109c-8.965,0-14.685-3.272-14.685-5.528s5.72-5.534,14.685-5.534S104.1,65.322,104.1,67.581,98.379,73.109,89.417,73.109Zm.005,44.294c-8.965,0-14.685-3.272-14.685-5.528,0-.011-.005-.016-.005-.027v-4.727c3.39,2.152,8.613,3.486,14.685,3.486s11.293-1.331,14.685-3.486v4.751C104.1,114.132,98.382,117.4,89.422,117.4ZM107.94,65.91c-1.458-4.647-8.924-7.977-18.523-7.977-10.719,0-18.8,4.148-18.8,9.651v.571H17.267A10.247,10.247,0,0,1,7.034,57.919V32.04H111.8V57.919A10.207,10.207,0,0,1,107.94,65.91Z" transform="translate(0 0)"/><path class="a" d="M29.354,30.215c-10.719,0-18.8,4.15-18.8,9.651v22.2s0,.005,0,.011c.005,5.493,8.086,9.637,18.8,9.637s18.8-4.148,18.8-9.646v-22.2C48.153,34.365,40.072,30.215,29.354,30.215ZM44.036,51.153c0,2.254-5.72,5.528-14.685,5.528s-14.682-3.272-14.682-5.528v-5.13c3.39,2.152,8.613,3.486,14.685,3.486s11.293-1.331,14.682-3.486ZM29.354,34.332c8.962,0,14.682,3.275,14.682,5.534s-5.72,5.525-14.682,5.525S14.668,42.12,14.668,39.866,20.391,34.332,29.354,34.332Zm0,33.26c-8.965,0-14.685-3.272-14.685-5.528V57.313c3.39,2.152,8.611,3.486,14.682,3.486s11.3-1.331,14.685-3.489v4.754C44.036,64.32,38.318,67.592,29.356,67.592Z" transform="translate(13.321 49.812)"/></g></svg>