<svg xmlns="http://www.w3.org/2000/svg" width="155.808" height="165.258" viewBox="0 0 155.808 165.258"><defs><style>.a{opacity:0.08;}.b{fill:#fff;}</style></defs><g class="a"><path class="b" d="M22.711,1.668H138.938a19.81,19.81,0,0,1,19.786,19.786V79.224a19.811,19.811,0,0,1-19.786,19.79H65.383v54.605a.4.4,0,0,1-.015.064c-.061,7.55-11.176,13.239-25.917,13.239-14.772,0-25.917-5.719-25.917-13.3V96.7A19.723,19.723,0,0,1,2.917,79.227V21.454A19.816,19.816,0,0,1,22.711,1.668ZM153.047,27.275H8.6v10.6h144.45ZM138.938,7.345H22.707A14.127,14.127,0,0,0,8.594,21.454V21.6H153.047v-.144A14.123,14.123,0,0,0,138.938,7.345ZM19.214,138.579c0,3.107,7.887,7.622,20.248,7.622s20.248-4.511,20.248-7.622v-7.074c-4.674,2.967-11.876,4.807-20.248,4.807s-15.57-1.836-20.248-4.807Zm40.492-37.533c-4.674,2.967-11.876,4.807-20.248,4.807s-15.57-1.836-20.248-4.807v7.07c0,3.107,7.887,7.622,20.248,7.622s20.248-4.511,20.248-7.622ZM19.214,123.012c0,3.1,7.887,7.619,20.248,7.619s20.248-4.511,20.248-7.619v-6.4c-4.674,2.967-11.876,4.807-20.248,4.807s-15.57-1.836-20.248-4.807Zm20.244-22.84c12.361,0,20.248-4.511,20.248-7.622s-7.887-7.63-20.248-7.63S19.21,89.435,19.21,92.549,27.1,100.172,39.458,100.172Zm-.008,61.073c12.361,0,20.248-4.511,20.248-7.622,0-.015.008-.023.008-.038v-6.517c-4.674,2.967-11.876,4.807-20.248,4.807s-15.57-1.836-20.248-4.807v6.551C19.214,156.734,27.1,161.245,39.45,161.245Zm-25.531-71c2.01-6.407,12.3-11,25.539-11,14.779,0,25.925,5.719,25.925,13.307v.787h73.555a14.129,14.129,0,0,0,14.109-14.113V43.545H8.6V79.227A14.073,14.073,0,0,0,13.919,90.245Z" transform="translate(-2.917 -1.668)"/><path class="b" d="M36.468,30.215c14.779,0,25.925,5.722,25.925,13.307V74.129s0,.008,0,.015c-.008,7.573-11.15,13.288-25.921,13.288s-25.917-5.719-25.917-13.3V43.518C10.547,35.937,21.689,30.215,36.468,30.215ZM16.224,59.084c0,3.107,7.887,7.622,20.248,7.622S56.716,62.2,56.716,59.084V52.011c-4.674,2.967-11.876,4.807-20.248,4.807S20.9,54.982,16.224,52.011ZM36.468,35.892c-12.357,0-20.244,4.515-20.244,7.63s7.887,7.619,20.244,7.619,20.248-4.511,20.248-7.619S48.825,35.892,36.468,35.892Zm0,45.859c12.361,0,20.248-4.511,20.248-7.622V67.577c-4.674,2.967-11.873,4.807-20.244,4.807s-15.574-1.836-20.248-4.81v6.555C16.224,77.24,24.108,81.751,36.465,81.751Z" transform="translate(64.522 77.826)"/></g></svg>